<svg width="79" height="81" viewBox="0 0 79 81" fill="none" xmlns="http://www.w3.org/2000/svg">
<g id="Group 692">
<g id="Vector">
<path d="M39.5029 0.0319824C28.7752 0.0319824 27.4289 0.0796971 23.2155 0.274738C19.0104 0.470616 16.14 1.14782 13.6285 2.14144C11.0305 3.16771 8.8267 4.54053 6.63113 6.77471C4.43392 9.00806 3.08432 11.2498 2.07213 13.8916C1.09284 16.4472 0.426275 19.3678 0.237003 23.6437C0.0493756 27.9295 0 29.2999 0 40.2121C0 51.1244 0.0477304 52.4896 0.238649 56.7755C0.432037 61.053 1.09778 63.9728 2.07377 66.5276C3.0835 69.1703 4.4331 71.412 6.62949 73.6453C8.82423 75.8803 11.028 77.2565 13.6244 78.2828C16.1376 79.2764 19.0088 79.9536 23.2131 80.1495C27.4265 80.3445 28.7719 80.3922 39.4988 80.3922C50.2272 80.3922 51.5694 80.3445 55.7828 80.1495C59.988 79.9536 62.8616 79.2764 65.3748 78.2828C67.972 77.2565 70.1725 75.8803 72.3672 73.6453C74.5644 71.412 75.914 69.1703 76.9262 66.5284C77.8973 63.9728 78.5639 61.0522 78.7614 56.7764C78.9506 52.4905 79 51.1244 79 40.2121C79 29.2999 78.9506 27.9304 78.7614 23.6445C78.5639 19.367 77.8973 16.4472 76.9262 13.8924C75.914 11.2498 74.5644 9.00806 72.3672 6.77471C70.17 4.53969 67.9728 3.16687 65.3724 2.14144C62.8542 1.14782 59.9822 0.470616 55.7771 0.274738C51.5637 0.0796971 50.2223 0.0319824 39.4914 0.0319824H39.5029ZM35.9594 7.27277C37.0111 7.2711 38.1846 7.27277 39.5029 7.27277C50.0495 7.27277 51.2995 7.31128 55.4643 7.50381C59.3156 7.68295 61.4059 8.33755 62.7983 8.88751C64.6416 9.61578 65.9558 10.4863 67.3375 11.8927C68.72 13.299 69.5759 14.6383 70.2935 16.5134C70.8341 17.928 71.4785 20.0542 71.6537 23.9718C71.843 28.2075 71.8842 29.4798 71.8842 40.2029C71.8842 50.926 71.843 52.1983 71.6537 56.434C71.4776 60.3516 70.8341 62.4778 70.2935 63.8924C69.5775 65.7675 68.72 67.1027 67.3375 68.5081C65.955 69.9144 64.6424 70.785 62.7983 71.5133C61.4075 72.0657 59.3156 72.7187 55.4643 72.8978C51.3003 73.0903 50.0495 73.1322 39.5029 73.1322C28.9554 73.1322 27.7054 73.0903 23.5414 72.8978C19.6901 72.717 17.5999 72.0624 16.2067 71.5124C14.3633 70.7842 13.0467 69.9136 11.6641 68.5073C10.2816 67.101 9.42579 65.765 8.7082 63.8891C8.16753 62.4744 7.52318 60.3482 7.3479 56.4306C7.15863 52.195 7.12077 50.9226 7.12077 40.1929C7.12077 29.4631 7.15863 28.1974 7.3479 23.9618C7.52401 20.0442 8.16753 17.918 8.7082 16.5016C9.42414 14.6266 10.2816 13.2872 11.6641 11.8809C13.0467 10.4746 14.3633 9.60406 16.2067 8.87412C17.5991 8.32164 19.6901 7.66872 23.5414 7.48874C27.1853 7.32133 28.5975 7.2711 35.9594 7.26273V7.27277Z" fill="url(#paint0_radial_145_26)"/>
<path d="M60.5029 13.8456C59.5654 13.8456 58.6489 14.1285 57.8693 14.6584C57.0898 15.1882 56.4823 15.9414 56.1235 16.8225C55.7648 17.7036 55.671 18.6732 55.8541 19.6085C56.0371 20.5439 56.4887 21.403 57.1518 22.0773C57.8149 22.7515 58.6596 23.2106 59.5792 23.3964C60.4988 23.5823 61.4519 23.4866 62.318 23.1214C63.1841 22.7562 63.9243 22.1379 64.4449 21.3448C64.9656 20.5517 65.2433 19.6193 65.243 18.6656C65.243 16.0037 63.1198 13.844 60.5029 13.844V13.8456Z" fill="url(#paint1_radial_145_26)"/>
<path fill-rule="evenodd" clip-rule="evenodd" d="M39.4179 19.4792C28.2155 19.4792 19.1328 28.7182 19.1328 40.1134C19.1328 51.5087 28.2155 60.7434 39.4179 60.7434C50.6204 60.7434 59.7006 51.5087 59.7006 40.1134C59.7006 28.7182 50.6204 19.4792 39.4179 19.4792ZM39.5 53.3963C46.6581 53.3963 52.461 47.4936 52.461 40.2122C52.461 32.9308 46.6581 27.0281 39.5 27.0281C32.3419 27.0281 26.5391 32.9308 26.5391 40.2122C26.5391 47.4936 32.3419 53.3963 39.5 53.3963Z" fill="url(#paint2_radial_145_26)"/>
</g>
<g id="Vector_2">
<path d="M39.5029 0.0319824C28.7752 0.0319824 27.4289 0.0796971 23.2155 0.274738C19.0104 0.470616 16.14 1.14782 13.6285 2.14144C11.0305 3.16771 8.8267 4.54053 6.63113 6.77471C4.43392 9.00806 3.08432 11.2498 2.07213 13.8916C1.09284 16.4472 0.426275 19.3678 0.237003 23.6437C0.0493756 27.9295 0 29.2999 0 40.2121C0 51.1244 0.0477304 52.4896 0.238649 56.7755C0.432037 61.053 1.09778 63.9728 2.07377 66.5276C3.0835 69.1703 4.4331 71.412 6.62949 73.6453C8.82423 75.8803 11.028 77.2565 13.6244 78.2828C16.1376 79.2764 19.0088 79.9536 23.2131 80.1495C27.4265 80.3445 28.7719 80.3922 39.4988 80.3922C50.2272 80.3922 51.5694 80.3445 55.7828 80.1495C59.988 79.9536 62.8616 79.2764 65.3748 78.2828C67.972 77.2565 70.1725 75.8803 72.3672 73.6453C74.5644 71.412 75.914 69.1703 76.9262 66.5284C77.8973 63.9728 78.5639 61.0522 78.7614 56.7764C78.9506 52.4905 79 51.1244 79 40.2121C79 29.2999 78.9506 27.9304 78.7614 23.6445C78.5639 19.367 77.8973 16.4472 76.9262 13.8924C75.914 11.2498 74.5644 9.00806 72.3672 6.77471C70.17 4.53969 67.9728 3.16687 65.3724 2.14144C62.8542 1.14782 59.9822 0.470616 55.7771 0.274738C51.5637 0.0796971 50.2223 0.0319824 39.4914 0.0319824H39.5029ZM35.9594 7.27277C37.0111 7.2711 38.1846 7.27277 39.5029 7.27277C50.0495 7.27277 51.2995 7.31128 55.4643 7.50381C59.3156 7.68295 61.4059 8.33755 62.7983 8.88751C64.6416 9.61578 65.9558 10.4863 67.3375 11.8927C68.72 13.299 69.5759 14.6383 70.2935 16.5134C70.8341 17.928 71.4785 20.0542 71.6537 23.9718C71.843 28.2075 71.8842 29.4798 71.8842 40.2029C71.8842 50.926 71.843 52.1983 71.6537 56.434C71.4776 60.3516 70.8341 62.4778 70.2935 63.8924C69.5775 65.7675 68.72 67.1027 67.3375 68.5081C65.955 69.9144 64.6424 70.785 62.7983 71.5133C61.4075 72.0657 59.3156 72.7187 55.4643 72.8978C51.3003 73.0903 50.0495 73.1322 39.5029 73.1322C28.9554 73.1322 27.7054 73.0903 23.5414 72.8978C19.6901 72.717 17.5999 72.0624 16.2067 71.5124C14.3633 70.7842 13.0467 69.9136 11.6641 68.5073C10.2816 67.101 9.42579 65.765 8.7082 63.8891C8.16753 62.4744 7.52318 60.3482 7.3479 56.4306C7.15863 52.195 7.12077 50.9226 7.12077 40.1929C7.12077 29.4631 7.15863 28.1974 7.3479 23.9618C7.52401 20.0442 8.16753 17.918 8.7082 16.5016C9.42414 14.6266 10.2816 13.2872 11.6641 11.8809C13.0467 10.4746 14.3633 9.60406 16.2067 8.87412C17.5991 8.32164 19.6901 7.66872 23.5414 7.48874C27.1853 7.32133 28.5975 7.2711 35.9594 7.26273V7.27277Z" fill="url(#paint3_radial_145_26)"/>
<path d="M60.5029 13.8456C59.5654 13.8456 58.6489 14.1285 57.8693 14.6584C57.0898 15.1882 56.4823 15.9414 56.1235 16.8225C55.7648 17.7036 55.671 18.6732 55.8541 19.6085C56.0371 20.5439 56.4887 21.403 57.1518 22.0773C57.8149 22.7515 58.6596 23.2106 59.5792 23.3964C60.4988 23.5823 61.4519 23.4866 62.318 23.1214C63.1841 22.7562 63.9243 22.1379 64.4449 21.3448C64.9656 20.5517 65.2433 19.6193 65.243 18.6656C65.243 16.0037 63.1198 13.844 60.5029 13.844V13.8456Z" fill="url(#paint4_radial_145_26)"/>
<path fill-rule="evenodd" clip-rule="evenodd" d="M39.4179 19.4792C28.2155 19.4792 19.1328 28.7182 19.1328 40.1134C19.1328 51.5087 28.2155 60.7434 39.4179 60.7434C50.6204 60.7434 59.7006 51.5087 59.7006 40.1134C59.7006 28.7182 50.6204 19.4792 39.4179 19.4792ZM39.5 53.3963C46.6581 53.3963 52.461 47.4936 52.461 40.2122C52.461 32.9308 46.6581 27.0281 39.5 27.0281C32.3419 27.0281 26.5391 32.9308 26.5391 40.2122C26.5391 47.4936 32.3419 53.3963 39.5 53.3963Z" fill="url(#paint5_radial_145_26)"/>
</g>
</g>
<defs>
<radialGradient id="paint0_radial_145_26" cx="0" cy="0" r="1" gradientUnits="userSpaceOnUse" gradientTransform="translate(20.9845 86.5817) rotate(-90) scale(79.6429 72.8204)">
<stop stop-color="#FFDD55"/>
<stop offset="0.1" stop-color="#FFDD55"/>
<stop offset="0.5" stop-color="#FF543E"/>
<stop offset="1" stop-color="#C837AB"/>
</radialGradient>
<radialGradient id="paint1_radial_145_26" cx="0" cy="0" r="1" gradientUnits="userSpaceOnUse" gradientTransform="translate(20.9845 86.5817) rotate(-90) scale(79.6429 72.8204)">
<stop stop-color="#FFDD55"/>
<stop offset="0.1" stop-color="#FFDD55"/>
<stop offset="0.5" stop-color="#FF543E"/>
<stop offset="1" stop-color="#C837AB"/>
</radialGradient>
<radialGradient id="paint2_radial_145_26" cx="0" cy="0" r="1" gradientUnits="userSpaceOnUse" gradientTransform="translate(20.9845 86.5817) rotate(-90) scale(79.6429 72.8204)">
<stop stop-color="#FFDD55"/>
<stop offset="0.1" stop-color="#FFDD55"/>
<stop offset="0.5" stop-color="#FF543E"/>
<stop offset="1" stop-color="#C837AB"/>
</radialGradient>
<radialGradient id="paint3_radial_145_26" cx="0" cy="0" r="1" gradientUnits="userSpaceOnUse" gradientTransform="translate(-13.2329 5.821) rotate(78.8674) scale(35.5777 144.357)">
<stop stop-color="#3771C8"/>
<stop offset="0.128" stop-color="#3771C8"/>
<stop offset="1" stop-color="#6600FF" stop-opacity="0"/>
</radialGradient>
<radialGradient id="paint4_radial_145_26" cx="0" cy="0" r="1" gradientUnits="userSpaceOnUse" gradientTransform="translate(-13.2329 5.821) rotate(78.8674) scale(35.5777 144.357)">
<stop stop-color="#3771C8"/>
<stop offset="0.128" stop-color="#3771C8"/>
<stop offset="1" stop-color="#6600FF" stop-opacity="0"/>
</radialGradient>
<radialGradient id="paint5_radial_145_26" cx="0" cy="0" r="1" gradientUnits="userSpaceOnUse" gradientTransform="translate(-13.2329 5.821) rotate(78.8674) scale(35.5777 144.357)">
<stop stop-color="#3771C8"/>
<stop offset="0.128" stop-color="#3771C8"/>
<stop offset="1" stop-color="#6600FF" stop-opacity="0"/>
</radialGradient>
</defs>
</svg>
