<svg width="78" height="80" viewBox="0 0 78 80" fill="none" xmlns="http://www.w3.org/2000/svg">
<g id="Group 621">
<path id="Rectangle 32" d="M0 13.559C0 6.28725 5.88529 0.392334 13.1452 0.392334H64.209C71.4689 0.392334 77.3542 6.28725 77.3542 13.559V66.2257C77.3542 73.4974 71.4689 79.3923 64.209 79.3923H13.1452C5.88529 79.3923 0 73.4974 0 66.2257V13.559Z" fill="#0077B5"/>
<g id="Vector">
<path d="M54.4505 68.2875H66.0987V44.7565C66.0987 33.1352 59.075 29.1714 52.5754 29.1714C46.5654 29.1714 42.4827 33.17 41.3555 35.5123V30.2407H30.1534V68.2875H41.8016V47.6598C41.8016 42.1597 45.1897 39.4849 48.6461 39.4849C51.9152 39.4849 54.4505 41.3758 54.4505 47.5071V68.2875Z" fill="white"/>
<path d="M10.6165 18.0651C10.6165 22.0371 13.6231 24.9398 17.3318 24.9398C21.0411 24.9398 24.0477 22.0371 24.0477 18.0651C24.0477 14.0935 21.0411 11.1875 17.3318 11.1875C13.6231 11.1875 10.6165 14.0935 10.6165 18.0651Z" fill="white"/>
<path d="M11.508 68.2582H23.1556V30.2114H11.508V68.2582Z" fill="white"/>
</g>
</g>
</svg>
